<mxfile host="www.draw.io" modified="2019-10-15T10:26:02.125Z" agent="Mozilla/5.0 (Windows NT 10.0; Win64; x64) AppleWebKit/537.36 (KHTML, like Gecko) Chrome/77.0.3865.90 Safari/537.36" etag="4tTkz6vzgP_CJNsTuYGV" version="12.1.1" type="github" pages="1">
  <diagram id="xgCDcQ-nwq47GF5DQ8uV" name="Page-1">
    <mxGraphModel dx="1550" dy="836" grid="1" gridSize="10" guides="1" tooltips="1" connect="1" arrows="1" fold="1" page="1" pageScale="1" pageWidth="827" pageHeight="1169" math="0" shadow="0">
      <root>
        <mxCell id="0"/>
        <mxCell id="1" parent="0"/>
        <mxCell id="7h6WoQNloBooSHt5KJOi-5" style="edgeStyle=orthogonalEdgeStyle;rounded=0;orthogonalLoop=1;jettySize=auto;html=1;exitX=0.5;exitY=1;exitDx=0;exitDy=0;entryX=0.5;entryY=0;entryDx=0;entryDy=0;" edge="1" parent="1" source="7h6WoQNloBooSHt5KJOi-1" target="7h6WoQNloBooSHt5KJOi-4">
          <mxGeometry relative="1" as="geometry"/>
        </mxCell>
        <mxCell id="7h6WoQNloBooSHt5KJOi-1" value="Collector&lt;br&gt;&lt;br&gt;获取LeafCollector" style="rounded=1;whiteSpace=wrap;html=1;" vertex="1" parent="1">
          <mxGeometry x="150" y="80" width="120" height="60" as="geometry"/>
        </mxCell>
        <mxCell id="7h6WoQNloBooSHt5KJOi-14" value="" style="edgeStyle=orthogonalEdgeStyle;rounded=0;orthogonalLoop=1;jettySize=auto;html=1;" edge="1" parent="1" source="7h6WoQNloBooSHt5KJOi-4" target="7h6WoQNloBooSHt5KJOi-13">
          <mxGeometry relative="1" as="geometry"/>
        </mxCell>
        <mxCell id="7h6WoQNloBooSHt5KJOi-4" value="BucketCollecot" style="rounded=1;whiteSpace=wrap;html=1;" vertex="1" parent="1">
          <mxGeometry x="150" y="190" width="120" height="60" as="geometry"/>
        </mxCell>
        <mxCell id="7h6WoQNloBooSHt5KJOi-13" value="Aggregator" style="rounded=1;whiteSpace=wrap;html=1;" vertex="1" parent="1">
          <mxGeometry x="150" y="330" width="120" height="60" as="geometry"/>
        </mxCell>
        <mxCell id="7h6WoQNloBooSHt5KJOi-10" value="" style="edgeStyle=orthogonalEdgeStyle;rounded=0;orthogonalLoop=1;jettySize=auto;html=1;" edge="1" parent="1" source="7h6WoQNloBooSHt5KJOi-6" target="7h6WoQNloBooSHt5KJOi-9">
          <mxGeometry relative="1" as="geometry"/>
        </mxCell>
        <mxCell id="7h6WoQNloBooSHt5KJOi-6" value="LeafCollector&lt;br&gt;&lt;br&gt;对每个doc执行collect方法" style="rounded=1;whiteSpace=wrap;html=1;" vertex="1" parent="1">
          <mxGeometry x="510" y="80" width="120" height="60" as="geometry"/>
        </mxCell>
        <mxCell id="7h6WoQNloBooSHt5KJOi-12" value="" style="edgeStyle=orthogonalEdgeStyle;rounded=0;orthogonalLoop=1;jettySize=auto;html=1;" edge="1" parent="1" source="7h6WoQNloBooSHt5KJOi-9" target="7h6WoQNloBooSHt5KJOi-11">
          <mxGeometry relative="1" as="geometry"/>
        </mxCell>
        <mxCell id="7h6WoQNloBooSHt5KJOi-9" value="LeafBucketCollector&lt;br&gt;&lt;br&gt;封装LeafCollector, wrap包装多个LeafCollector, 抽象方法collect(int doc, long bucket)&lt;br&gt;默认collect bucket 为0" style="rounded=1;whiteSpace=wrap;html=1;" vertex="1" parent="1">
          <mxGeometry x="487.5" y="180" width="165" height="100" as="geometry"/>
        </mxCell>
        <mxCell id="7h6WoQNloBooSHt5KJOi-11" value="LeafBucketCollectorBase&lt;br&gt;&lt;br&gt;封装LeafBucketCollector和ScoreAware" style="rounded=1;whiteSpace=wrap;html=1;" vertex="1" parent="1">
          <mxGeometry x="487.5" y="360" width="165" height="100" as="geometry"/>
        </mxCell>
      </root>
    </mxGraphModel>
  </diagram>
</mxfile>
